<svg width="617" height="158" viewBox="0 0 617 158" fill="none" xmlns="http://www.w3.org/2000/svg">
<path d="M42.311 0H48.2089L5.8979 120H0L42.311 0Z" fill="black"/>
<path d="M147.231 101.401V107.261H85.3031V18.0892H145.308V23.949H91.8421V59.1083H139.666V64.8408H91.8421V101.401H147.231Z" fill="black"/>
<path d="M281.594 107.261L281.465 30.9554L243.898 95.414H240.693L203.126 31.2102V107.261H196.715V18.0892H202.228L242.36 87.0064L282.491 18.0892H287.876L288.004 107.261H281.594Z" fill="black"/>
<path d="M429.817 107.261L429.689 30.9554L392.122 95.414H388.917L351.35 31.2102V107.261H344.939V18.0892H350.452L390.583 87.0064L430.715 18.0892H436.1L436.228 107.261H429.817Z" fill="black"/>
<path d="M548.68 82.1656H496.624L485.213 107.261H478.161L519.447 18.0892H525.986L567.271 107.261H560.219L548.68 82.1656ZM546.244 76.6879L522.652 25.2229L499.189 76.6879H546.244Z" fill="black"/>
<path d="M610.769 107.771C609.316 107.771 608.034 107.261 606.922 106.242C605.897 105.138 605.384 103.822 605.384 102.293C605.384 100.764 605.897 99.4904 606.922 98.4713C608.034 97.4522 609.316 96.9427 610.769 96.9427C612.222 96.9427 613.461 97.4522 614.487 98.4713C615.598 99.4904 616.154 100.764 616.154 102.293C616.154 103.822 615.598 105.138 614.487 106.242C613.461 107.261 612.222 107.771 610.769 107.771Z" fill="black"/>
<path d="M84.7118 136H93.0218C95.2018 136 97.1318 136.45 98.8118 137.35C100.512 138.25 101.832 139.5 102.772 141.1C103.712 142.68 104.182 144.48 104.182 146.5C104.182 148.52 103.712 150.33 102.772 151.93C101.832 153.51 100.512 154.75 98.8118 155.65C97.1318 156.55 95.2018 157 93.0218 157H84.7118V136ZM92.9018 155.62C94.8418 155.62 96.5518 155.24 98.0318 154.48C99.5118 153.7 100.652 152.62 101.452 151.24C102.252 149.86 102.652 148.28 102.652 146.5C102.652 144.72 102.252 143.14 101.452 141.76C100.652 140.38 99.5118 139.31 98.0318 138.55C96.5518 137.77 94.8418 137.38 92.9018 137.38H86.2418V155.62H92.9018Z" fill="black"/>
<path d="M110.457 144.76C110.937 143.62 111.687 142.75 112.707 142.15C113.727 141.53 114.967 141.22 116.427 141.22V142.69L116.067 142.66C114.327 142.66 112.967 143.21 111.987 144.31C111.007 145.39 110.517 146.9 110.517 148.84V157H109.017V141.34H110.457V144.76Z" fill="black"/>
<path d="M133.643 149.53H120.173C120.213 150.75 120.523 151.84 121.103 152.8C121.683 153.74 122.463 154.47 123.443 154.99C124.443 155.51 125.563 155.77 126.803 155.77C127.823 155.77 128.763 155.59 129.623 155.23C130.503 154.85 131.233 154.3 131.813 153.58L132.683 154.57C132.003 155.39 131.143 156.02 130.103 156.46C129.083 156.9 127.973 157.12 126.773 157.12C125.213 157.12 123.823 156.78 122.603 156.1C121.383 155.42 120.423 154.48 119.723 153.28C119.043 152.08 118.703 150.71 118.703 149.17C118.703 147.65 119.023 146.29 119.663 145.09C120.323 143.87 121.223 142.92 122.363 142.24C123.503 141.56 124.783 141.22 126.203 141.22C127.623 141.22 128.893 141.56 130.013 142.24C131.153 142.9 132.043 143.83 132.683 145.03C133.343 146.23 133.673 147.59 133.673 149.11L133.643 149.53ZM126.203 142.54C125.103 142.54 124.113 142.79 123.233 143.29C122.353 143.77 121.643 144.46 121.103 145.36C120.583 146.24 120.283 147.24 120.203 148.36H132.203C132.143 147.24 131.843 146.24 131.303 145.36C130.763 144.48 130.053 143.79 129.173 143.29C128.293 142.79 127.303 142.54 126.203 142.54Z" fill="black"/>
<path d="M142.274 157.12C141.014 157.12 139.814 156.93 138.674 156.55C137.534 156.17 136.644 155.69 136.004 155.11L136.694 153.91C137.334 154.45 138.154 154.9 139.154 155.26C140.174 155.62 141.234 155.8 142.334 155.8C143.914 155.8 145.074 155.54 145.814 155.02C146.574 154.5 146.954 153.78 146.954 152.86C146.954 152.2 146.744 151.68 146.324 151.3C145.924 150.92 145.424 150.64 144.824 150.46C144.224 150.28 143.394 150.09 142.334 149.89C141.094 149.67 140.094 149.43 139.334 149.17C138.574 148.91 137.924 148.49 137.384 147.91C136.844 147.33 136.574 146.53 136.574 145.51C136.574 144.27 137.084 143.25 138.104 142.45C139.144 141.63 140.614 141.22 142.514 141.22C143.514 141.22 144.504 141.36 145.484 141.64C146.464 141.92 147.264 142.29 147.884 142.75L147.194 143.95C146.554 143.49 145.824 143.14 145.004 142.9C144.184 142.66 143.344 142.54 142.484 142.54C141.024 142.54 139.924 142.81 139.184 143.35C138.444 143.89 138.074 144.6 138.074 145.48C138.074 146.18 138.284 146.73 138.704 147.13C139.124 147.51 139.634 147.8 140.234 148C140.854 148.18 141.714 148.38 142.814 148.6C144.034 148.82 145.014 149.06 145.754 149.32C146.514 149.56 147.154 149.96 147.674 150.52C148.194 151.08 148.454 151.85 148.454 152.83C148.454 154.13 147.914 155.17 146.834 155.95C145.754 156.73 144.234 157.12 142.274 157.12Z" fill="black"/>
<path d="M156.6 157.12C155.34 157.12 154.14 156.93 153 156.55C151.86 156.17 150.97 155.69 150.33 155.11L151.02 153.91C151.66 154.45 152.48 154.9 153.48 155.26C154.5 155.62 155.56 155.8 156.66 155.8C158.24 155.8 159.4 155.54 160.14 155.02C160.9 154.5 161.28 153.78 161.28 152.86C161.28 152.2 161.07 151.68 160.65 151.3C160.25 150.92 159.75 150.64 159.15 150.46C158.55 150.28 157.72 150.09 156.66 149.89C155.42 149.67 154.42 149.43 153.66 149.17C152.9 148.91 152.25 148.49 151.71 147.91C151.17 147.33 150.9 146.53 150.9 145.51C150.9 144.27 151.41 143.25 152.43 142.45C153.47 141.63 154.94 141.22 156.84 141.22C157.84 141.22 158.83 141.36 159.81 141.64C160.79 141.92 161.59 142.29 162.21 142.75L161.52 143.95C160.88 143.49 160.15 143.14 159.33 142.9C158.51 142.66 157.67 142.54 156.81 142.54C155.35 142.54 154.25 142.81 153.51 143.35C152.77 143.89 152.4 144.6 152.4 145.48C152.4 146.18 152.61 146.73 153.03 147.13C153.45 147.51 153.96 147.8 154.56 148C155.18 148.18 156.04 148.38 157.14 148.6C158.36 148.82 159.34 149.06 160.08 149.32C160.84 149.56 161.48 149.96 162 150.52C162.52 151.08 162.78 151.85 162.78 152.83C162.78 154.13 162.24 155.17 161.16 155.95C160.08 156.73 158.56 157.12 156.6 157.12Z" fill="black"/>
<path d="M180.196 149.53H166.726C166.766 150.75 167.076 151.84 167.656 152.8C168.236 153.74 169.016 154.47 169.996 154.99C170.996 155.51 172.116 155.77 173.356 155.77C174.376 155.77 175.316 155.59 176.176 155.23C177.056 154.85 177.786 154.3 178.366 153.58L179.236 154.57C178.556 155.39 177.696 156.02 176.656 156.46C175.636 156.9 174.526 157.12 173.326 157.12C171.766 157.12 170.376 156.78 169.156 156.1C167.936 155.42 166.976 154.48 166.276 153.28C165.596 152.08 165.256 150.71 165.256 149.17C165.256 147.65 165.576 146.29 166.216 145.09C166.876 143.87 167.776 142.92 168.916 142.24C170.056 141.56 171.336 141.22 172.756 141.22C174.176 141.22 175.446 141.56 176.566 142.24C177.706 142.9 178.596 143.83 179.236 145.03C179.896 146.23 180.226 147.59 180.226 149.11L180.196 149.53ZM172.756 142.54C171.656 142.54 170.666 142.79 169.786 143.29C168.906 143.77 168.196 144.46 167.656 145.36C167.136 146.24 166.836 147.24 166.756 148.36H178.756C178.696 147.24 178.396 146.24 177.856 145.36C177.316 144.48 176.606 143.79 175.726 143.29C174.846 142.79 173.856 142.54 172.756 142.54Z" fill="black"/>
<path d="M188.827 157.12C187.567 157.12 186.367 156.93 185.227 156.55C184.087 156.17 183.197 155.69 182.557 155.11L183.247 153.91C183.887 154.45 184.707 154.9 185.707 155.26C186.727 155.62 187.787 155.8 188.887 155.8C190.467 155.8 191.627 155.54 192.367 155.02C193.127 154.5 193.507 153.78 193.507 152.86C193.507 152.2 193.297 151.68 192.877 151.3C192.477 150.92 191.977 150.64 191.377 150.46C190.777 150.28 189.947 150.09 188.887 149.89C187.647 149.67 186.647 149.43 185.887 149.17C185.127 148.91 184.477 148.49 183.937 147.91C183.397 147.33 183.127 146.53 183.127 145.51C183.127 144.27 183.637 143.25 184.657 142.45C185.697 141.63 187.167 141.22 189.067 141.22C190.067 141.22 191.057 141.36 192.037 141.64C193.017 141.92 193.817 142.29 194.437 142.75L193.747 143.95C193.107 143.49 192.377 143.14 191.557 142.9C190.737 142.66 189.897 142.54 189.037 142.54C187.577 142.54 186.477 142.81 185.737 143.35C184.997 143.89 184.627 144.6 184.627 145.48C184.627 146.18 184.837 146.73 185.257 147.13C185.677 147.51 186.187 147.8 186.787 148C187.407 148.18 188.267 148.38 189.367 148.6C190.587 148.82 191.567 149.06 192.307 149.32C193.067 149.56 193.707 149.96 194.227 150.52C194.747 151.08 195.007 151.85 195.007 152.83C195.007 154.13 194.467 155.17 193.387 155.95C192.307 156.73 190.787 157.12 188.827 157.12Z" fill="black"/>
<path d="M229.278 141.34L223.338 157H221.928L216.648 143.41L211.338 157H209.958L204.018 141.34H205.458L210.678 155.32L216.018 141.34H217.308L222.618 155.29L227.898 141.34H229.278Z" fill="black"/>
<path d="M232.767 141.34H234.267V157H232.767V141.34ZM233.517 137.53C233.177 137.53 232.887 137.42 232.647 137.2C232.407 136.96 232.287 136.67 232.287 136.33C232.287 135.99 232.407 135.7 232.647 135.46C232.887 135.22 233.177 135.1 233.517 135.1C233.857 135.1 234.147 135.22 234.387 135.46C234.627 135.68 234.747 135.96 234.747 136.3C234.747 136.64 234.627 136.93 234.387 137.17C234.147 137.41 233.857 137.53 233.517 137.53Z" fill="black"/>
<path d="M248.359 156.01C247.979 156.37 247.499 156.65 246.919 156.85C246.359 157.03 245.769 157.12 245.149 157.12C243.789 157.12 242.739 156.75 241.999 156.01C241.259 155.25 240.889 154.2 240.889 152.86V142.63H238.009V141.34H240.889V137.92H242.389V141.34H247.369V142.63H242.389V152.71C242.389 153.73 242.629 154.51 243.109 155.05C243.609 155.57 244.339 155.83 245.299 155.83C246.279 155.83 247.089 155.54 247.729 154.96L248.359 156.01Z" fill="black"/>
<path d="M260.192 141.22C262.152 141.22 263.702 141.79 264.842 142.93C265.982 144.07 266.552 145.71 266.552 147.85V157H265.052V147.97C265.052 146.21 264.602 144.87 263.702 143.95C262.822 143.03 261.582 142.57 259.982 142.57C258.142 142.57 256.692 143.12 255.632 144.22C254.572 145.32 254.042 146.8 254.042 148.66V157H252.542V134.74H254.042V144.61C254.582 143.53 255.382 142.7 256.442 142.12C257.502 141.52 258.752 141.22 260.192 141.22Z" fill="black"/>
<path d="M284.033 144.79C287.093 144.79 289.313 145.33 290.693 146.41C292.073 147.47 292.763 148.98 292.763 150.94C292.763 152.14 292.483 153.21 291.923 154.15C291.383 155.07 290.563 155.8 289.463 156.34C288.363 156.88 287.013 157.15 285.413 157.15C283.893 157.15 282.463 156.89 281.123 156.37C279.803 155.85 278.773 155.17 278.033 154.33L278.813 153.16C279.473 153.92 280.383 154.54 281.543 155.02C282.723 155.5 284.003 155.74 285.383 155.74C287.263 155.74 288.703 155.31 289.703 154.45C290.723 153.59 291.233 152.44 291.233 151C291.233 149.42 290.653 148.22 289.493 147.4C288.353 146.58 286.423 146.17 283.703 146.17H279.443L280.553 136H291.683V137.38H281.843L281.033 144.79H284.033Z" fill="black"/>
<path d="M317.437 141.34L310.357 157H308.827L301.777 141.34H303.367L309.607 155.35L315.907 141.34H317.437Z" fill="black"/>
<path d="M325.527 141.22C327.467 141.22 328.957 141.72 329.997 142.72C331.037 143.7 331.557 145.15 331.557 147.07V157H330.117V154.21C329.617 155.13 328.887 155.85 327.927 156.37C326.967 156.87 325.817 157.12 324.477 157.12C322.737 157.12 321.357 156.71 320.337 155.89C319.337 155.07 318.837 153.99 318.837 152.65C318.837 151.35 319.297 150.3 320.217 149.5C321.157 148.68 322.647 148.27 324.687 148.27H330.057V147.01C330.057 145.55 329.657 144.44 328.857 143.68C328.077 142.92 326.927 142.54 325.407 142.54C324.367 142.54 323.367 142.72 322.407 143.08C321.467 143.44 320.667 143.92 320.007 144.52L319.257 143.44C320.037 142.74 320.977 142.2 322.077 141.82C323.177 141.42 324.327 141.22 325.527 141.22ZM324.687 155.89C325.987 155.89 327.087 155.59 327.987 154.99C328.907 154.39 329.597 153.52 330.057 152.38V149.44H324.717C323.177 149.44 322.057 149.72 321.357 150.28C320.677 150.84 320.337 151.61 320.337 152.59C320.337 153.61 320.717 154.42 321.477 155.02C322.237 155.6 323.307 155.89 324.687 155.89Z" fill="black"/>
<path d="M339.178 144.76C339.658 143.62 340.408 142.75 341.428 142.15C342.448 141.53 343.688 141.22 345.148 141.22V142.69L344.788 142.66C343.048 142.66 341.688 143.21 340.708 144.31C339.728 145.39 339.238 146.9 339.238 148.84V157H337.738V141.34H339.178V144.76Z" fill="black"/>
<path d="M349.281 141.34H350.781V157H349.281V141.34ZM350.031 137.53C349.691 137.53 349.401 137.42 349.161 137.2C348.921 136.96 348.801 136.67 348.801 136.33C348.801 135.99 348.921 135.7 349.161 135.46C349.401 135.22 349.691 135.1 350.031 135.1C350.371 135.1 350.661 135.22 350.901 135.46C351.141 135.68 351.261 135.96 351.261 136.3C351.261 136.64 351.141 136.93 350.901 137.17C350.661 137.41 350.371 137.53 350.031 137.53Z" fill="black"/>
<path d="M362.383 141.22C364.323 141.22 365.813 141.72 366.853 142.72C367.893 143.7 368.413 145.15 368.413 147.07V157H366.973V154.21C366.473 155.13 365.743 155.85 364.783 156.37C363.823 156.87 362.673 157.12 361.333 157.12C359.593 157.12 358.213 156.71 357.193 155.89C356.193 155.07 355.693 153.99 355.693 152.65C355.693 151.35 356.153 150.3 357.073 149.5C358.013 148.68 359.503 148.27 361.543 148.27H366.913V147.01C366.913 145.55 366.513 144.44 365.713 143.68C364.933 142.92 363.783 142.54 362.263 142.54C361.223 142.54 360.223 142.72 359.263 143.08C358.323 143.44 357.523 143.92 356.863 144.52L356.113 143.44C356.893 142.74 357.833 142.2 358.933 141.82C360.033 141.42 361.183 141.22 362.383 141.22ZM361.543 155.89C362.843 155.89 363.943 155.59 364.843 154.99C365.763 154.39 366.453 153.52 366.913 152.38V149.44H361.573C360.033 149.44 358.913 149.72 358.213 150.28C357.533 150.84 357.193 151.61 357.193 152.59C357.193 153.61 357.573 154.42 358.333 155.02C359.093 155.6 360.163 155.89 361.543 155.89Z" fill="black"/>
<path d="M382.243 141.22C384.203 141.22 385.753 141.79 386.893 142.93C388.033 144.07 388.603 145.71 388.603 147.85V157H387.103V147.97C387.103 146.21 386.653 144.87 385.753 143.95C384.873 143.03 383.633 142.57 382.033 142.57C380.193 142.57 378.743 143.12 377.683 144.22C376.623 145.32 376.093 146.8 376.093 148.66V157H374.593V141.34H376.033V144.73C376.573 143.63 377.373 142.77 378.433 142.15C379.513 141.53 380.783 141.22 382.243 141.22Z" fill="black"/>
<path d="M402.549 156.01C402.169 156.37 401.689 156.65 401.109 156.85C400.549 157.03 399.959 157.12 399.339 157.12C397.979 157.12 396.929 156.75 396.189 156.01C395.449 155.25 395.079 154.2 395.079 152.86V142.63H392.199V141.34H395.079V137.92H396.579V141.34H401.559V142.63H396.579V152.71C396.579 153.73 396.819 154.51 397.299 155.05C397.799 155.57 398.529 155.83 399.489 155.83C400.469 155.83 401.279 155.54 401.919 154.96L402.549 156.01Z" fill="black"/>
<path d="M410.692 157.12C409.432 157.12 408.232 156.93 407.092 156.55C405.952 156.17 405.062 155.69 404.422 155.11L405.112 153.91C405.752 154.45 406.572 154.9 407.572 155.26C408.592 155.62 409.652 155.8 410.752 155.8C412.332 155.8 413.492 155.54 414.232 155.02C414.992 154.5 415.372 153.78 415.372 152.86C415.372 152.2 415.162 151.68 414.742 151.3C414.342 150.92 413.842 150.64 413.242 150.46C412.642 150.28 411.812 150.09 410.752 149.89C409.512 149.67 408.512 149.43 407.752 149.17C406.992 148.91 406.342 148.49 405.802 147.91C405.262 147.33 404.992 146.53 404.992 145.51C404.992 144.27 405.502 143.25 406.522 142.45C407.562 141.63 409.032 141.22 410.932 141.22C411.932 141.22 412.922 141.36 413.902 141.64C414.882 141.92 415.682 142.29 416.302 142.75L415.612 143.95C414.972 143.49 414.242 143.14 413.422 142.9C412.602 142.66 411.762 142.54 410.902 142.54C409.442 142.54 408.342 142.81 407.602 143.35C406.862 143.89 406.492 144.6 406.492 145.48C406.492 146.18 406.702 146.73 407.122 147.13C407.542 147.51 408.052 147.8 408.652 148C409.272 148.18 410.132 148.38 411.232 148.6C412.452 148.82 413.432 149.06 414.172 149.32C414.932 149.56 415.572 149.96 416.092 150.52C416.612 151.08 416.872 151.85 416.872 152.83C416.872 154.13 416.332 155.17 415.252 155.95C414.172 156.73 412.652 157.12 410.692 157.12Z" fill="black"/>
<path d="M434.883 157.12C433.403 157.12 432.063 156.78 430.863 156.1C429.683 155.42 428.753 154.48 428.073 153.28C427.393 152.06 427.053 150.69 427.053 149.17C427.053 147.65 427.393 146.29 428.073 145.09C428.753 143.87 429.683 142.92 430.863 142.24C432.063 141.56 433.403 141.22 434.883 141.22C436.363 141.22 437.693 141.56 438.873 142.24C440.073 142.92 441.013 143.87 441.693 145.09C442.373 146.29 442.713 147.65 442.713 149.17C442.713 150.69 442.373 152.06 441.693 153.28C441.013 154.48 440.073 155.42 438.873 156.1C437.693 156.78 436.363 157.12 434.883 157.12ZM434.883 155.77C436.083 155.77 437.153 155.49 438.093 154.93C439.053 154.37 439.803 153.59 440.343 152.59C440.903 151.59 441.183 150.45 441.183 149.17C441.183 147.89 440.903 146.75 440.343 145.75C439.803 144.75 439.053 143.97 438.093 143.41C437.153 142.85 436.083 142.57 434.883 142.57C433.683 142.57 432.603 142.85 431.643 143.41C430.703 143.97 429.953 144.75 429.393 145.75C428.853 146.75 428.583 147.89 428.583 149.17C428.583 150.45 428.853 151.59 429.393 152.59C429.953 153.59 430.703 154.37 431.643 154.93C432.603 155.49 433.683 155.77 434.883 155.77Z" fill="black"/>
<path d="M452.077 135.91C450.117 135.91 449.137 136.96 449.137 139.06V141.34H454.147V142.63H449.167V157H447.667V142.63H444.787V141.34H447.667V138.94C447.667 137.62 448.047 136.57 448.807 135.79C449.567 135.01 450.637 134.62 452.017 134.62C452.617 134.62 453.187 134.71 453.727 134.89C454.287 135.05 454.747 135.3 455.107 135.64L454.507 136.78C453.867 136.2 453.057 135.91 452.077 135.91Z" fill="black"/>
<path d="M471.125 157.12C469.605 157.12 468.245 156.78 467.045 156.1C465.845 155.42 464.905 154.48 464.225 153.28C463.545 152.06 463.205 150.69 463.205 149.17C463.205 147.63 463.545 146.26 464.225 145.06C464.905 143.84 465.845 142.9 467.045 142.24C468.245 141.56 469.605 141.22 471.125 141.22C472.385 141.22 473.525 141.47 474.545 141.97C475.585 142.45 476.425 143.16 477.065 144.1L475.955 144.91C475.395 144.13 474.695 143.55 473.855 143.17C473.035 142.77 472.125 142.57 471.125 142.57C469.905 142.57 468.805 142.85 467.825 143.41C466.865 143.95 466.105 144.72 465.545 145.72C465.005 146.72 464.735 147.87 464.735 149.17C464.735 150.47 465.005 151.62 465.545 152.62C466.105 153.62 466.865 154.4 467.825 154.96C468.805 155.5 469.905 155.77 471.125 155.77C472.125 155.77 473.035 155.58 473.855 155.2C474.695 154.8 475.395 154.21 475.955 153.43L477.065 154.24C476.425 155.18 475.585 155.9 474.545 156.4C473.525 156.88 472.385 157.12 471.125 157.12Z" fill="black"/>
<path d="M487.412 157.12C485.932 157.12 484.592 156.78 483.392 156.1C482.212 155.42 481.282 154.48 480.602 153.28C479.922 152.06 479.582 150.69 479.582 149.17C479.582 147.65 479.922 146.29 480.602 145.09C481.282 143.87 482.212 142.92 483.392 142.24C484.592 141.56 485.932 141.22 487.412 141.22C488.892 141.22 490.222 141.56 491.402 142.24C492.602 142.92 493.542 143.87 494.222 145.09C494.902 146.29 495.242 147.65 495.242 149.17C495.242 150.69 494.902 152.06 494.222 153.28C493.542 154.48 492.602 155.42 491.402 156.1C490.222 156.78 488.892 157.12 487.412 157.12ZM487.412 155.77C488.612 155.77 489.682 155.49 490.622 154.93C491.582 154.37 492.332 153.59 492.872 152.59C493.432 151.59 493.712 150.45 493.712 149.17C493.712 147.89 493.432 146.75 492.872 145.75C492.332 144.75 491.582 143.97 490.622 143.41C489.682 142.85 488.612 142.57 487.412 142.57C486.212 142.57 485.132 142.85 484.172 143.41C483.232 143.97 482.482 144.75 481.922 145.75C481.382 146.75 481.112 147.89 481.112 149.17C481.112 150.45 481.382 151.59 481.922 152.59C482.482 153.59 483.232 154.37 484.172 154.93C485.132 155.49 486.212 155.77 487.412 155.77Z" fill="black"/>
<path d="M499.896 134.74H501.396V157H499.896V134.74Z" fill="black"/>
<path d="M513.838 157.12C512.358 157.12 511.018 156.78 509.818 156.1C508.638 155.42 507.708 154.48 507.028 153.28C506.348 152.06 506.008 150.69 506.008 149.17C506.008 147.65 506.348 146.29 507.028 145.09C507.708 143.87 508.638 142.92 509.818 142.24C511.018 141.56 512.358 141.22 513.838 141.22C515.318 141.22 516.648 141.56 517.828 142.24C519.028 142.92 519.968 143.87 520.648 145.09C521.328 146.29 521.668 147.65 521.668 149.17C521.668 150.69 521.328 152.06 520.648 153.28C519.968 154.48 519.028 155.42 517.828 156.1C516.648 156.78 515.318 157.12 513.838 157.12ZM513.838 155.77C515.038 155.77 516.108 155.49 517.048 154.93C518.008 154.37 518.758 153.59 519.298 152.59C519.858 151.59 520.138 150.45 520.138 149.17C520.138 147.89 519.858 146.75 519.298 145.75C518.758 144.75 518.008 143.97 517.048 143.41C516.108 142.85 515.038 142.57 513.838 142.57C512.638 142.57 511.558 142.85 510.598 143.41C509.658 143.97 508.908 144.75 508.348 145.75C507.808 146.75 507.538 147.89 507.538 149.17C507.538 150.45 507.808 151.59 508.348 152.59C508.908 153.59 509.658 154.37 510.598 154.93C511.558 155.49 512.638 155.77 513.838 155.77Z" fill="black"/>
<path d="M527.762 144.76C528.242 143.62 528.992 142.75 530.012 142.15C531.032 141.53 532.272 141.22 533.732 141.22V142.69L533.372 142.66C531.632 142.66 530.272 143.21 529.292 144.31C528.312 145.39 527.822 146.9 527.822 148.84V157H526.322V141.34H527.762V144.76Z" fill="black"/>
</svg>
