<svg width="424" height="84" viewBox="0 0 424 84" fill="none" xmlns="http://www.w3.org/2000/svg">
<path d="M30.016 0.903994H34.064L5.024 83.8H0.976L30.016 0.903994ZM102.028 70.952V75H59.5235V13.4H100.708V17.448H64.0115V41.736H96.8355V45.696H64.0115V70.952H102.028ZM194.247 75L194.159 22.288L168.375 66.816H166.175L140.391 22.464V75H135.991V13.4H139.775L167.319 61.008L194.863 13.4H198.559L198.647 75H194.247ZM295.98 75L295.892 22.288L270.108 66.816H267.908L242.124 22.464V75H237.724V13.4H241.508L269.052 61.008L296.596 13.4H300.292L300.38 75H295.98ZM377.56 57.664H341.832L334 75H329.16L357.496 13.4H361.984L390.32 75H385.48L377.56 57.664ZM375.888 53.88L359.696 18.328L343.592 53.88H375.888ZM420.175 75.352C419.178 75.352 418.298 75 417.535 74.296C416.831 73.5333 416.479 72.624 416.479 71.568C416.479 70.512 416.831 69.632 417.535 68.928C418.298 68.224 419.178 67.872 420.175 67.872C421.172 67.872 422.023 68.224 422.727 68.928C423.49 69.632 423.871 70.512 423.871 71.568C423.871 72.624 423.49 73.5333 422.727 74.296C422.023 75 421.172 75.352 420.175 75.352Z" fill="white"/>
</svg>
