<svg width="27" height="30" viewBox="0 0 27 30" fill="none" xmlns="http://www.w3.org/2000/svg">
<path fill-rule="evenodd" clip-rule="evenodd" d="M18.1564 22.4522C17.9813 23.8933 17.1093 25.0465 15.7569 25.6248C15.0035 25.9462 13.9932 26.1201 13.1925 26.066C11.9438 26.0187 10.7711 25.7146 9.6905 25.1594C9.30458 24.9612 8.72859 24.5649 8.28623 24.194C8.17449 24.1007 8.16066 24.0396 8.23554 23.9348C8.27586 23.8749 8.34959 23.7655 8.51202 23.527C8.74818 23.1802 8.77813 23.1376 8.80462 23.0962C8.88066 22.9798 9.00277 22.9694 9.12488 23.065C9.13755 23.0754 9.13754 23.0754 9.14676 23.0823C9.16634 23.0973 9.16635 23.0973 9.21358 23.1342C9.26081 23.171 9.28961 23.1929 9.30113 23.2021C10.4669 24.1157 11.8251 24.6421 13.196 24.6951C15.1037 24.6686 16.4745 23.8115 16.7211 22.4948C16.9918 21.0456 15.8536 19.7934 13.628 19.0953C12.9322 18.8776 11.172 18.1726 10.8482 17.9825C9.32417 17.0885 8.61224 15.9181 8.71362 14.4712C8.86913 12.4668 10.7296 10.9715 13.0819 10.9611C14.1337 10.9588 15.1832 11.1777 16.1912 11.6028C16.5483 11.7537 17.1853 12.1005 17.4053 12.264C17.5321 12.3573 17.5574 12.4656 17.4848 12.5831C17.4445 12.6511 17.3777 12.7582 17.236 12.9829L17.2349 12.9852C17.0482 13.2801 17.0425 13.2893 16.9998 13.3584C16.9261 13.4702 16.8397 13.4817 16.7061 13.3964C15.6278 12.6718 14.4309 12.3067 13.1165 12.2813C11.4795 12.3136 10.2515 13.2882 10.1709 14.6164C10.149 15.8156 11.0487 16.6911 12.9909 17.3581C16.9319 18.6241 18.441 20.1091 18.1564 22.4522ZM13.287 1.75217C15.8536 1.75217 17.9468 4.18862 18.0447 7.23792H8.5293C8.62722 4.18862 10.7192 1.75217 13.287 1.75217ZM26.5728 7.81162C26.5728 7.49482 26.3183 7.23792 26.0038 7.23792H19.836C19.6851 3.21173 16.8109 0 13.287 0C9.76307 0 6.88887 3.21058 6.73796 7.23792H0.562168C0.252284 7.24368 0.00345582 7.49828 0.00345582 7.81162C0.00345582 7.82659 0.00345518 7.84156 0.00460717 7.85654H0L0.880117 27.264C0.880117 27.3182 0.882419 27.3723 0.885875 27.4276C0.887027 27.4403 0.888179 27.4518 0.889331 27.4645L0.891635 27.506L0.89394 27.5083C1.02757 28.8584 2.00791 29.947 3.34076 29.9965L3.34421 30H22.936C22.9452 30 22.9545 30 22.9637 30C22.9729 30 22.9821 30 22.9913 30H23.0328L23.0339 29.9988C24.3898 29.962 25.4888 28.8584 25.604 27.4921L25.6052 27.491L25.6063 27.4725C25.6075 27.4576 25.6086 27.4437 25.6098 27.4299C25.6121 27.3954 25.6132 27.3608 25.6144 27.3274L26.5751 7.84271H26.574C26.5728 7.83119 26.5728 7.82198 26.5728 7.81162Z" fill="white"/>
</svg>
